<svg width="24" height="24" viewBox="0 0 24 24" fill="none" xmlns="http://www.w3.org/2000/svg">
<path d="M20 12C20 12.2652 19.8946 12.5196 19.7071 12.7071C19.5196 12.8946 19.2652 13 19 13H11.41L13.71 15.29C13.8037 15.383 13.8781 15.4936 13.9289 15.6154C13.9797 15.7373 14.0058 15.868 14.0058 16C14.0058 16.132 13.9797 16.2627 13.9289 16.3846C13.8781 16.5064 13.8037 16.617 13.71 16.71C13.617 16.8037 13.5064 16.8781 13.3846 16.9289C13.2627 16.9797 13.132 17.0058 13 17.0058C12.868 17.0058 12.7373 16.9797 12.6154 16.9289C12.4936 16.8781 12.383 16.8037 12.29 16.71L8.29 12.71C8.19896 12.6149 8.12759 12.5028 8.08 12.38C7.97998 12.1365 7.97998 11.8635 8.08 11.62C8.12759 11.4972 8.19896 11.3851 8.29 11.29L12.29 7.29C12.3832 7.19676 12.4939 7.1228 12.6158 7.07234C12.7376 7.02188 12.8681 6.99591 13 6.99591C13.1319 6.99591 13.2624 7.02188 13.3842 7.07234C13.5061 7.1228 13.6168 7.19676 13.71 7.29C13.8032 7.38324 13.8772 7.49393 13.9277 7.61575C13.9781 7.73757 14.0041 7.86814 14.0041 8C14.0041 8.13186 13.9781 8.26243 13.9277 8.38425C13.8772 8.50607 13.8032 8.61676 13.71 8.71L11.41 11H19C19.2652 11 19.5196 11.1054 19.7071 11.2929C19.8946 11.4804 20 11.7348 20 12ZM7 2H17C17.7956 2 18.5587 2.31607 19.1213 2.87868C19.6839 3.44129 20 4.20435 20 5V8C20 8.26522 19.8946 8.51957 19.7071 8.70711C19.5196 8.89464 19.2652 9 19 9C18.7348 9 18.4804 8.89464 18.2929 8.70711C18.1054 8.51957 18 8.26522 18 8V5C18 4.73478 17.8946 4.48043 17.7071 4.29289C17.5196 4.10536 17.2652 4 17 4H7C6.73478 4 6.48043 4.10536 6.29289 4.29289C6.10536 4.48043 6 4.73478 6 5V19C6 19.2652 6.10536 19.5196 6.29289 19.7071C6.48043 19.8946 6.73478 20 7 20H17C17.2652 20 17.5196 19.8946 17.7071 19.7071C17.8946 19.5196 18 19.2652 18 19V16C18 15.7348 18.1054 15.4804 18.2929 15.2929C18.4804 15.1054 18.7348 15 19 15C19.2652 15 19.5196 15.1054 19.7071 15.2929C19.8946 15.4804 20 15.7348 20 16V19C20 19.7956 19.6839 20.5587 19.1213 21.1213C18.5587 21.6839 17.7956 22 17 22H7C6.20435 22 5.44129 21.6839 4.87868 21.1213C4.31607 20.5587 4 19.7956 4 19V5C4 4.20435 4.31607 3.44129 4.87868 2.87868C5.44129 2.31607 6.20435 2 7 2Z" fill="black"/>
</svg>
