<svg xmlns="http://www.w3.org/2000/svg" viewBox="0 0 32 32" id="sun"><path d="M16 6.184c-5.413 0-9.816 4.403-9.816 9.816s4.403 9.816 9.816 9.816c5.412 0 9.815-4.403 9.815-9.816S21.412 6.184 16 6.184zm0 16.632c-3.758 0-6.816-3.058-6.816-6.816S12.242 9.184 16 9.184s6.815 3.058 6.815 6.816-3.057 6.816-6.815 6.816zm0-17.884a1.5 1.5 0 0 0 1.5-1.5V2a1.5 1.5 0 1 0-3 0v1.432a1.5 1.5 0 0 0 1.5 1.5zM6.053 8.174a1.495 1.495 0 0 0 2.121 0 1.5 1.5 0 0 0 0-2.121L7.16 5.04A1.5 1.5 0 1 0 5.04 7.161l1.013 1.013zM3.433 14.5H2a1.5 1.5 0 1 0 0 3h1.432a1.5 1.5 0 1 0 0-3zm2.62 9.326L5.04 24.84a1.5 1.5 0 1 0 2.121 2.121l1.013-1.013a1.5 1.5 0 1 0-2.121-2.12zM16 27.068a1.5 1.5 0 0 0-1.5 1.5V30a1.5 1.5 0 1 0 3 0v-1.432a1.5 1.5 0 0 0-1.5-1.5zm9.947-3.242a1.5 1.5 0 1 0-2.12 2.121l1.012 1.013a1.496 1.496 0 0 0 2.121 0 1.5 1.5 0 0 0 0-2.121l-1.013-1.013zM30 14.5h-1.433a1.5 1.5 0 0 0 0 3H30a1.5 1.5 0 0 0 0-3zm-5.113-5.887c.384 0 .767-.146 1.06-.44l1.013-1.012a1.5 1.5 0 1 0-2.121-2.121l-1.013 1.013a1.5 1.5 0 0 0 1.06 2.56z"></path></svg>