<svg width="34" height="30" viewBox="0 0 34 30" fill="none" xmlns="http://www.w3.org/2000/svg">
<g clip-path="url(#clip0_224_112)">
<path d="M16.9301 5.46C19.7607 5.44756 22.5371 6.23633 24.9384 7.73514C27.3396 9.23395 29.2678 11.3816 30.5001 13.93C29.6086 15.7693 28.3453 17.4037 26.7901 18.73L29.0001 20.9C31.1684 18.9909 32.8485 16.5908 33.9001 13.9C32.1938 9.591 28.9112 6.0931 24.7191 4.11687C20.527 2.14063 15.7399 1.83426 11.3301 3.26L13.8701 5.8C14.8763 5.58539 15.9013 5.4715 16.9301 5.46Z" fill="white"/>
<path d="M15.28 7.22L18.47 10.4L20.47 12.4L23.65 15.59C23.9205 14.5686 23.9506 13.4985 23.7381 12.4635C23.5256 11.4285 23.0762 10.4568 22.4252 9.62462C21.7742 8.79243 20.9392 8.12238 19.9858 7.66701C19.0324 7.21164 17.9864 6.98334 16.93 7C16.3728 7.00231 15.8183 7.07625 15.28 7.22ZM1.55 2.19L5.68 6.31C3.13819 8.29526 1.17647 10.927 0 13.93C1.76386 18.42 5.23902 22.0254 9.66107 23.9533C14.0831 25.8811 19.0899 25.9735 23.58 24.21L28.84 29.47L31 27.3L3.72 0L1.55 2.19ZM7.86 8.5L10.56 11.19C10.1859 12.0407 9.99508 12.9607 10 13.89C9.99707 15.0282 10.2766 16.1493 10.8134 17.1529C11.3503 18.1565 12.1277 19.0112 13.0761 19.6405C14.0245 20.2698 15.1142 20.6539 16.2475 20.7586C17.3808 20.8632 18.5224 20.685 19.57 20.24L19.63 20.3L21.14 21.81C19.7622 22.1914 18.3396 22.3865 16.91 22.39C14.0836 22.3944 11.3131 21.6033 8.91514 20.1072C6.5172 18.6112 4.58864 16.4705 3.35 13.93C4.40767 11.792 5.95244 9.93211 7.86 8.5Z" fill="white"/>
</g>
<defs>
<clipPath id="clip0_224_112">
<rect width="33.86" height="29.47" fill="white"/>
</clipPath>
</defs>
</svg>
