<svg width="35" height="35" viewBox="0 0 35 35" fill="none" xmlns="http://www.w3.org/2000/svg">
<g clip-path="url(#clip0_224_78)">
<path d="M27.5697 33.72H10.9997C10.6682 33.72 10.3502 33.5883 10.1158 33.3539C9.88137 33.1194 9.74967 32.8015 9.74967 32.47C9.74967 32.1385 9.88137 31.8205 10.1158 31.5861C10.3502 31.3517 10.6682 31.22 10.9997 31.22H27.5697C28.1396 31.2585 28.7016 31.0697 29.1326 30.6948C29.5636 30.32 29.8287 29.7897 29.8697 29.22C29.8701 28.9441 29.8013 28.6724 29.6697 28.43C29.6014 28.2721 29.5662 28.102 29.5662 27.93C29.5662 27.758 29.6014 27.5878 29.6697 27.43C29.7395 27.2622 29.8443 27.1112 29.9771 26.987C30.1099 26.8629 30.2676 26.7684 30.4397 26.71C30.8531 26.6013 31.2209 26.3631 31.4891 26.0301C31.7572 25.6972 31.9116 25.2871 31.9297 24.86C31.9236 24.6157 31.8693 24.3751 31.7697 24.152C31.6702 23.9288 31.5274 23.7276 31.3497 23.56C31.1133 23.3221 30.9807 23.0003 30.9807 22.665C30.9807 22.3296 31.1133 22.0079 31.3497 21.77C31.5283 21.603 31.6716 21.402 31.7713 21.1787C31.8709 20.9554 31.9247 20.7144 31.9297 20.47C31.9249 20.224 31.8712 19.9815 31.7716 19.7566C31.672 19.5316 31.5286 19.3288 31.3497 19.16C31.2308 19.0445 31.1367 18.9061 31.0731 18.7531C31.0094 18.6 30.9777 18.4357 30.9797 18.27C30.9802 17.936 31.1133 17.6159 31.3497 17.38C31.5299 17.1996 31.671 16.9839 31.7639 16.7464C31.8568 16.5089 31.8996 16.2548 31.8897 16C31.8461 15.4312 31.5804 14.9025 31.1499 14.5282C30.7195 14.1539 30.159 13.9641 29.5897 14H22.7897C22.5719 14.0021 22.3575 13.9468 22.1679 13.8397C21.9783 13.7326 21.8203 13.5775 21.7097 13.39C21.6037 13.2005 21.5481 12.9871 21.5481 12.77C21.5481 12.5529 21.6037 12.3394 21.7097 12.15C21.7097 12.15 23.6297 8.62998 22.7097 5.83998C22.5073 5.25225 22.1837 4.71357 21.76 4.2588C21.3362 3.80403 20.8217 3.4433 20.2497 3.19998C19.1297 2.64998 18.7997 2.75998 18.7897 2.75998C18.7797 2.75998 18.3397 3.59998 18.3397 6.66998C18.3397 11.67 12.2197 19.29 11.9597 19.61C11.8576 19.7379 11.7313 19.8443 11.5879 19.9232C11.4445 20.002 11.2869 20.0517 11.1242 20.0694C10.9616 20.087 10.797 20.0723 10.64 20.0261C10.4831 19.9798 10.3368 19.903 10.2097 19.8C10.0741 19.6982 9.96062 19.57 9.87617 19.423C9.79171 19.276 9.73802 19.1134 9.71838 18.945C9.69874 18.7767 9.71355 18.6061 9.7619 18.4436C9.81026 18.2811 9.89116 18.1302 9.99967 18C11.6197 16 15.8197 10.05 15.8197 6.62998C15.8197 3.88998 15.9397 1.53998 17.4597 0.629977C18.7397 -0.160023 20.2997 0.439977 21.3497 0.999977C22.2368 1.39323 23.0305 1.96995 23.6786 2.69215C24.3267 3.41434 24.8144 4.26564 25.1097 5.18998C25.6502 7.31403 25.5031 9.55478 24.6897 11.59H29.5897C30.8075 11.5517 31.9918 11.9918 32.889 12.8161C33.7862 13.6404 34.3249 14.7833 34.3897 16C34.3914 16.7767 34.1767 17.5385 33.7697 18.2C34.1755 18.862 34.3902 19.6234 34.3902 20.4C34.3902 21.1765 34.1755 21.9379 33.7697 22.6C34.1764 23.2579 34.3911 24.0165 34.3897 24.79C34.3815 25.5304 34.1865 26.2567 33.8229 26.9017C33.4593 27.5468 32.9389 28.0896 32.3097 28.48C32.3499 28.7145 32.37 28.952 32.3697 29.19C32.3542 29.8033 32.2174 30.4075 31.9674 30.9677C31.7173 31.5279 31.3589 32.0331 30.9127 32.4542C30.4665 32.8753 29.9414 33.2039 29.3677 33.4212C28.7939 33.6384 28.1829 33.74 27.5697 33.72Z" fill="white"/>
<path d="M8.69035 34.75H3.86035C2.99921 34.7474 2.17409 34.4041 1.56517 33.7952C0.956246 33.1863 0.612989 32.3612 0.610352 31.5V20.75C0.612989 19.8889 0.956246 19.0638 1.56517 18.4548C2.17409 17.8459 2.99921 17.5027 3.86035 17.5H8.69035C9.12181 17.4934 9.55029 17.5725 9.95094 17.7327C10.3516 17.893 10.7165 18.1312 11.0244 18.4335C11.3323 18.7358 11.5771 19.0962 11.7446 19.4939C11.9122 19.8915 11.9991 20.3185 12.0004 20.75V31.5C11.9991 31.9315 11.9122 32.3585 11.7446 32.7561C11.5771 33.1538 11.3323 33.5142 11.0244 33.8166C10.7165 34.1189 10.3516 34.3571 9.95094 34.5173C9.55029 34.6775 9.12181 34.7566 8.69035 34.75ZM3.86035 20C3.66224 20.0026 3.47298 20.0825 3.33289 20.2226C3.19279 20.3626 3.11294 20.5519 3.11035 20.75V31.5C3.11294 31.6981 3.19279 31.8874 3.33289 32.0275C3.47298 32.1676 3.66224 32.2474 3.86035 32.25H8.69035C8.8902 32.25 9.082 32.1713 9.22425 32.031C9.36649 31.8906 9.44772 31.6998 9.45035 31.5V20.75C9.44772 20.5502 9.36649 20.3594 9.22425 20.2191C9.082 20.0787 8.8902 20 8.69035 20H3.86035Z" fill="white"/>
</g>
<defs>
<clipPath id="clip0_224_78">
<rect width="35" height="35" fill="white"/>
</clipPath>
</defs>
</svg>
