<svg width="24" height="24" viewBox="0 0 24 24" fill="none" xmlns="http://www.w3.org/2000/svg">
<path d="M18.0006 14C17.4098 14.0039 16.8272 14.1386 16.2946 14.3945C15.7621 14.6504 15.2929 15.0211 14.9206 15.48L9.82064 13.13C10.0604 12.3957 10.0604 11.6042 9.82064 10.87L14.9206 8.51999C15.5223 9.24596 16.361 9.73607 17.2888 9.90383C18.2166 10.0716 19.1738 9.90622 19.9916 9.4369C20.8093 8.96757 21.435 8.22447 21.7582 7.33874C22.0814 6.453 22.0813 5.48157 21.7579 4.5959C21.4346 3.71022 20.8088 2.96724 19.991 2.49806C19.1731 2.02889 18.2158 1.86369 17.2881 2.03162C16.3603 2.19955 15.5217 2.68981 14.9202 3.41589C14.3187 4.14196 13.993 5.05717 14.0006 5.99999C14.0036 6.23822 14.0271 6.47576 14.0706 6.70999L8.79064 9.13999C8.22772 8.58957 7.51488 8.21751 6.74144 8.07042C5.968 7.92333 5.16836 8.00776 4.44269 8.31312C3.71702 8.61849 3.0976 9.13121 2.66204 9.78705C2.22648 10.4429 1.99414 11.2127 1.99414 12C1.99414 12.7873 2.22648 13.5571 2.66204 14.2129C3.0976 14.8688 3.71702 15.3815 4.44269 15.6869C5.16836 15.9922 5.968 16.0767 6.74144 15.9296C7.51488 15.7825 8.22772 15.4104 8.79064 14.86L14.0706 17.29C14.0271 17.5242 14.0036 17.7618 14.0006 18C14.0006 18.7911 14.2352 19.5645 14.6748 20.2223C15.1143 20.8801 15.739 21.3928 16.4699 21.6955C17.2008 21.9983 18.0051 22.0775 18.781 21.9231C19.5569 21.7688 20.2697 21.3878 20.8291 20.8284C21.3885 20.269 21.7694 19.5563 21.9238 18.7804C22.0781 18.0044 21.9989 17.2002 21.6962 16.4693C21.3934 15.7384 20.8807 15.1136 20.2229 14.6741C19.5651 14.2346 18.7918 14 18.0006 14ZM18.0006 3.99999C18.3962 3.99999 18.7829 4.11729 19.1118 4.33705C19.4407 4.55682 19.697 4.86917 19.8484 5.23463C19.9998 5.60008 20.0394 6.00221 19.9622 6.39017C19.885 6.77813 19.6946 7.1345 19.4149 7.41421C19.1351 7.69391 18.7788 7.88439 18.3908 7.96156C18.0029 8.03873 17.6007 7.99913 17.2353 7.84775C16.8698 7.69638 16.5575 7.44003 16.3377 7.11113C16.1179 6.78223 16.0006 6.39555 16.0006 5.99999C16.0006 5.46956 16.2114 4.96085 16.5864 4.58578C16.9615 4.21071 17.4702 3.99999 18.0006 3.99999ZM6.00064 14C5.60508 14 5.2184 13.8827 4.8895 13.6629C4.5606 13.4432 4.30425 13.1308 4.15288 12.7654C4.0015 12.3999 3.9619 11.9978 4.03907 11.6098C4.11624 11.2218 4.30672 10.8655 4.58642 10.5858C4.86613 10.3061 5.2225 10.1156 5.61046 10.0384C5.99842 9.96125 6.40055 10.0009 6.76601 10.1522C7.13146 10.3036 7.44381 10.56 7.66358 10.8889C7.88334 11.2178 8.00064 11.6044 8.00064 12C8.00064 12.5304 7.78992 13.0391 7.41485 13.4142C7.03978 13.7893 6.53107 14 6.00064 14ZM18.0006 20C17.6051 20 17.2184 19.8827 16.8895 19.6629C16.5606 19.4432 16.3043 19.1308 16.1529 18.7654C16.0015 18.3999 15.9619 17.9978 16.0391 17.6098C16.1162 17.2218 16.3067 16.8655 16.5864 16.5858C16.8661 16.3061 17.2225 16.1156 17.6105 16.0384C17.9984 15.9613 18.4006 16.0009 18.766 16.1522C19.1315 16.3036 19.4438 16.56 19.6636 16.8889C19.8833 17.2177 20.0006 17.6044 20.0006 18C20.0006 18.5304 19.7899 19.0391 19.4149 19.4142C19.0398 19.7893 18.5311 20 18.0006 20Z" fill="white"/>
</svg>
