<svg width="32" height="32" viewBox="0 0 32 32" fill="none" xmlns="http://www.w3.org/2000/svg">
<g clip-path="url(#clip0_224_109)">
<path d="M26.7097 0.940005C26.1197 0.349975 25.1797 0.349975 24.5897 0.940005L13.1997 12.33C13.0197 12.5 12.8997 12.72 12.8197 12.96L10.9597 19.17C10.7997 19.7 10.9497 20.27 11.3397 20.66C11.6197 20.95 12.0097 21.1 12.3997 21.1C12.5396 21.1 12.6897 21.08 12.8297 21.04L19.0396 19.18C19.2797 19.1 19.4997 18.98 19.6696 18.8L31.0597 7.40997C31.3397 7.13 31.4997 6.75 31.4997 6.34998C31.4997 5.95002 31.3397 5.57001 31.0597 5.28998L26.7097 0.940005Z" fill="white"/>
<path d="M30 14.5C29.1714 14.5 28.5 15.1719 28.5 16V26C28.5 27.3789 27.3784 28.5 26 28.5H6C4.62158 28.5 3.5 27.3789 3.5 26V6C3.5 4.62109 4.62158 3.5 6 3.5H16C16.8286 3.5 17.5 2.82812 17.5 2C17.5 1.17188 16.8286 0.5 16 0.5H6C2.96729 0.5 0.5 2.96777 0.5 6V26C0.5 29.0322 2.96729 31.5 6 31.5H26C29.0327 31.5 31.5 29.0322 31.5 26V16C31.5 15.1719 30.8286 14.5 30 14.5Z" fill="white"/>
</g>
<defs>
<clipPath id="clip0_224_109">
<rect width="32" height="32" fill="white"/>
</clipPath>
</defs>
</svg>
