<svg width="24" height="24" viewBox="0 0 24 24" fill="none" xmlns="http://www.w3.org/2000/svg">
<path d="M7.35928 8.48299H1.86728C0.900281 8.48299 0.113281 9.26899 0.113281 10.236V20.73C0.113281 21.697 0.900281 22.483 1.86728 22.483H7.35928C8.32628 22.483 9.11328 21.697 9.11328 20.73V10.236C9.11328 9.26999 8.32628 8.48299 7.35928 8.48299ZM23.8873 11.036C23.8873 9.44799 21.7563 8.48299 20.8213 8.48299H16.6073C17.3223 5.36799 16.4583 3.58999 15.8503 2.78599C15.2483 1.99099 14.4183 1.51599 13.6293 1.51599C13.0163 1.51599 12.4883 1.80499 12.1863 2.31199C12.14 2.38975 12.1155 2.47851 12.1153 2.56899V5.25499C11.5103 7.00099 10.9193 8.36599 10.1153 9.39999V21.379C10.3043 21.442 10.4863 21.485 10.6353 21.485H19.8623C20.2963 21.485 20.7183 21.259 21.0913 20.836C21.6073 20.244 21.9523 19.332 21.9653 18.584C22.7133 18.022 23.0693 16.996 23.0033 15.584C23.8083 14.748 23.7583 13.561 23.4963 12.828C23.8253 12.358 23.8873 11.561 23.8873 11.036Z" fill="white"/>
</svg>
