<svg width="32" height="32" viewBox="0 0 32 32" fill="none" xmlns="http://www.w3.org/2000/svg">
<g clip-path="url(#clip0_224_104)">
<path d="M16.11 31.5C23.71 31.5 30.17 26.07 31.48 18.59C31.58 18 31.33 17.41 30.83 17.08C30.33 16.75 29.69 16.75 29.19 17.07C27.52 18.15 25.58 18.72 23.59 18.72C17.91 18.72 13.28 14.09 13.28 8.40997C13.28 6.41998 13.85 4.47998 14.93 2.80999C15.25 2.31 15.25 1.66998 14.92 1.16998C14.59 0.669981 13.99 0.41998 13.41 0.51996C5.92999 1.82996 0.5 8.28998 0.5 15.89C0.5 24.5 7.5 31.5 16.11 31.5Z" fill="white"/>
</g>
<defs>
<clipPath id="clip0_224_104">
<rect width="32" height="32" fill="white"/>
</clipPath>
</defs>
</svg>
