<svg width="32" height="32" viewBox="0 0 32 32" fill="none" xmlns="http://www.w3.org/2000/svg">
<g clip-path="url(#clip0_224_102)">
<path d="M16 6.184C10.587 6.184 6.184 10.587 6.184 16C6.184 21.413 10.587 25.816 16 25.816C21.412 25.816 25.815 21.413 25.815 16C25.815 10.587 21.412 6.184 16 6.184ZM16 22.816C12.242 22.816 9.184 19.758 9.184 16C9.184 12.242 12.242 9.184 16 9.184C19.758 9.184 22.815 12.242 22.815 16C22.815 19.758 19.758 22.816 16 22.816ZM16 4.932C16.3978 4.932 16.7794 4.77396 17.0607 4.49266C17.342 4.21136 17.5 3.82982 17.5 3.432V2C17.5 1.60218 17.342 1.22064 17.0607 0.93934C16.7794 0.658035 16.3978 0.5 16 0.5C15.6022 0.5 15.2206 0.658035 14.9393 0.93934C14.658 1.22064 14.5 1.60218 14.5 2V3.432C14.5 3.62898 14.5388 3.82404 14.6142 4.00603C14.6896 4.18801 14.8001 4.35337 14.9393 4.49266C15.2206 4.77396 15.6022 4.932 16 4.932ZM6.053 8.174C6.19195 8.31384 6.35718 8.42481 6.53918 8.50054C6.72118 8.57627 6.91637 8.61526 7.1135 8.61526C7.31063 8.61526 7.50582 8.57627 7.68782 8.50054C7.86982 8.42481 8.03505 8.31384 8.174 8.174C8.45521 7.89271 8.61318 7.51125 8.61318 7.1135C8.61318 6.71575 8.45521 6.33429 8.174 6.053L7.16 5.04C7.02219 4.89437 6.85659 4.77785 6.67298 4.69733C6.48937 4.6168 6.29148 4.57389 6.091 4.57115C5.89053 4.56841 5.69154 4.60589 5.5058 4.68137C5.32005 4.75685 5.15133 4.8688 5.00959 5.0106C4.86785 5.15241 4.75598 5.32119 4.68059 5.50696C4.6052 5.69274 4.56781 5.89175 4.57065 6.09222C4.57348 6.2927 4.61648 6.49057 4.6971 6.67414C4.77771 6.85771 4.89431 7.02326 5.04 7.161L6.053 8.174ZM3.433 14.5H2C1.60218 14.5 1.22064 14.658 0.93934 14.9393C0.658035 15.2206 0.5 15.6022 0.5 16C0.5 16.3978 0.658035 16.7794 0.93934 17.0607C1.22064 17.342 1.60218 17.5 2 17.5H3.432C3.82982 17.5 4.21136 17.342 4.49266 17.0607C4.77396 16.7794 4.932 16.3978 4.932 16C4.932 15.6022 4.77396 15.2206 4.49266 14.9393C4.21136 14.658 3.82982 14.5 3.432 14.5H3.433ZM6.053 23.826L5.04 24.84C4.89673 24.9784 4.78246 25.1439 4.70385 25.3269C4.62523 25.5099 4.58385 25.7067 4.58212 25.9059C4.58039 26.1051 4.61835 26.3026 4.69377 26.4869C4.76919 26.6713 4.88057 26.8388 5.02141 26.9796C5.16225 27.1204 5.32972 27.2318 5.51407 27.3072C5.69841 27.3827 5.89593 27.4206 6.0951 27.4189C6.29427 27.4171 6.4911 27.3758 6.67411 27.2972C6.85711 27.2185 7.02263 27.1043 7.161 26.961L8.174 25.948C8.31962 25.8102 8.43615 25.6446 8.51667 25.461C8.5972 25.2774 8.64011 25.0795 8.64285 24.879C8.64559 24.6785 8.60811 24.4795 8.53263 24.2938C8.45715 24.1081 8.3452 23.9393 8.2034 23.7976C8.06159 23.6559 7.89281 23.544 7.70704 23.4686C7.52126 23.3932 7.32225 23.3558 7.12178 23.3587C6.9213 23.3615 6.72343 23.4045 6.53986 23.4851C6.35629 23.5657 6.19074 23.6823 6.053 23.828V23.826ZM16 27.068C15.6022 27.068 15.2206 27.226 14.9393 27.5073C14.658 27.7886 14.5 28.1702 14.5 28.568V30C14.5 30.3978 14.658 30.7794 14.9393 31.0607C15.2206 31.342 15.6022 31.5 16 31.5C16.3978 31.5 16.7794 31.342 17.0607 31.0607C17.342 30.7794 17.5 30.3978 17.5 30V28.568C17.5 28.1702 17.342 27.7886 17.0607 27.5073C16.7794 27.226 16.3978 27.068 16 27.068ZM25.947 23.826C25.8092 23.6804 25.6436 23.5639 25.46 23.4833C25.2764 23.4028 25.0785 23.3599 24.878 23.3572C24.6775 23.3544 24.4785 23.3919 24.2928 23.4674C24.1071 23.5428 23.9383 23.6548 23.7966 23.7966C23.6549 23.9384 23.543 24.1072 23.4676 24.293C23.3922 24.4787 23.3548 24.6778 23.3576 24.8782C23.3605 25.0787 23.4035 25.2766 23.4841 25.4601C23.5647 25.6437 23.6813 25.8093 23.827 25.947L24.839 26.96C24.978 27.0997 25.1433 27.2106 25.3253 27.2862C25.5073 27.3619 25.7024 27.4008 25.8995 27.4008C26.0966 27.4008 26.2917 27.3619 26.4737 27.2862C26.6557 27.2106 26.821 27.0997 26.96 26.96C27.2412 26.6787 27.3992 26.2972 27.3992 25.8995C27.3992 25.5018 27.2412 25.1203 26.96 24.839L25.947 23.826ZM30 14.5H28.567C28.1692 14.5 27.7876 14.658 27.5063 14.9393C27.225 15.2206 27.067 15.6022 27.067 16C27.067 16.3978 27.225 16.7794 27.5063 17.0607C27.7876 17.342 28.1692 17.5 28.567 17.5H30C30.3978 17.5 30.7794 17.342 31.0607 17.0607C31.342 16.7794 31.5 16.3978 31.5 16C31.5 15.6022 31.342 15.2206 31.0607 14.9393C30.7794 14.658 30.3978 14.5 30 14.5ZM24.887 8.613C25.271 8.613 25.654 8.467 25.947 8.173L26.96 7.161C27.1033 7.02263 27.2175 6.85711 27.2962 6.67411C27.3748 6.4911 27.4161 6.29427 27.4179 6.0951C27.4196 5.89593 27.3817 5.69841 27.3062 5.51407C27.2308 5.32972 27.1194 5.16225 26.9786 5.02141C26.8378 4.88057 26.6703 4.76919 26.4859 4.69377C26.3016 4.61835 26.1041 4.58039 25.9049 4.58212C25.7057 4.58385 25.5089 4.62523 25.3259 4.70385C25.1429 4.78246 24.9774 4.89673 24.839 5.04L23.826 6.053C23.6165 6.26277 23.4738 6.52993 23.4161 6.82073C23.3583 7.11152 23.388 7.41292 23.5014 7.68685C23.6148 7.96077 23.8069 8.19495 24.0533 8.35979C24.2998 8.52462 24.5905 8.61274 24.887 8.613Z" fill="white"/>
</g>
<defs>
<clipPath id="clip0_224_102">
<rect width="32" height="32" fill="white"/>
</clipPath>
</defs>
</svg>
